<svg xmlns="http://www.w3.org/2000/svg" viewBox="0 0 960 360" role="img" aria-labelledby="title desc">
  <title id="title">Runners League</title>
  <desc id="desc">Logo Runners League com letra R azul, uma corredora e um corredor em movimento.</desc>
  <defs>
    <linearGradient id="rl-blue" x1="0" x2="1" y1="0" y2="1">
      <stop offset="0" stop-color="#11a7ff"/>
      <stop offset="0.48" stop-color="#00d4ff"/>
      <stop offset="1" stop-color="#086fe8"/>
    </linearGradient>
    <linearGradient id="rl-white" x1="0" x2="0" y1="0" y2="1">
      <stop offset="0" stop-color="#ffffff"/>
      <stop offset="1" stop-color="#dceaff"/>
    </linearGradient>
    <filter id="soft-glow" x="-20%" y="-20%" width="140%" height="140%">
      <feGaussianBlur stdDeviation="7" result="blur"/>
      <feColorMatrix in="blur" type="matrix" values="0 0 0 0 0.03 0 0 0 0 0.61 0 0 0 0 1 0 0 0 0.55 0"/>
      <feMerge>
        <feMergeNode/>
        <feMergeNode in="SourceGraphic"/>
      </feMerge>
    </filter>
  </defs>
  <rect width="960" height="360" fill="#061426"/>
  <g filter="url(#soft-glow)">
    <path fill="url(#rl-blue)" d="M187 34h318c64 0 112 48 112 110 0 57-42 102-99 108l89 74H462l-86-72H255l-47 72H76l88-137h252c25 0 45-19 45-44s-20-43-45-43H250L187 34Z"/>
    <path fill="#061426" opacity=".98" d="M78 101h240l-37 43H36l42-43Zm-34 67h235l-38 42H18l26-42Zm-17 67h184l-34 39H6l21-39Z"/>
  </g>
  <g fill="#061426" stroke="#0dbdff" stroke-linejoin="round" stroke-width="4">
    <path d="M246 95c14 0 25 11 25 25s-11 25-25 25-25-11-25-25 11-25 25-25Z"/>
    <path d="M221 104c-28 0-45 10-58 27 20-5 38-4 56 4l8-31Z"/>
    <path d="M213 146c24-15 52-16 78-2l40 22 38-20 14 25-51 38-52-20-24 46 52 31-17 31-77-36-19-70-55 28-23-27 96-46Z"/>
    <path d="M198 257l-54 56h-44l70-80 28 24Z"/>
    <path d="M254 235l-33 91h-43l38-104 38 13Z"/>
  </g>
  <g fill="#061426" stroke="#7ce8ff" stroke-linejoin="round" stroke-width="4">
    <path d="M406 83c15 0 26 11 26 26 0 14-11 25-26 25-14 0-25-11-25-25 0-15 11-26 25-26Z"/>
    <path d="M357 137c28-14 61-14 91 1l36 19 39-26 17 27-50 45-55-23-29 54 58 44-22 32-83-45-22-75-45 28-25-27 90-54Z"/>
    <path d="M374 259l-66 67h-48l83-91 31 24Z"/>
    <path d="M421 236l-38 90h-45l45-105 38 15Z"/>
  </g>
  <g opacity=".82" stroke-linecap="round">
    <path d="M82 118h118" stroke="#7ce8ff" stroke-width="8"/>
    <path d="M42 186h154" stroke="#11a7ff" stroke-width="8"/>
    <path d="M23 252h142" stroke="#ffffff" stroke-width="5"/>
  </g>
  <g transform="skewX(-10)">
    <text x="120" y="288" fill="url(#rl-white)" font-family="Arial Black, Impact, sans-serif" font-size="78" font-weight="900" letter-spacing="4">RUNNERS</text>
    <text x="252" y="339" fill="url(#rl-blue)" font-family="Arial Black, Impact, sans-serif" font-size="52" font-weight="900" letter-spacing="16">LEAGUE</text>
  </g>
</svg>
